<?xml version="1.0" encoding="UTF-8" standalone="no"?>
<svg
        xmlns="http://www.w3.org/2000/svg"
        xmlns:xlink="http://www.w3.org/1999/xlink"
        version="1.0"
        width="98pt"
        height="56pt"
        viewBox="0 0 98 56"
        preserveAspectRatio="xMidYMid meet"
        id="svg3773">
    <defs id="defs3777">
        <linearGradient
                id="linearGradient5111">
            <stop
                    id="stop5105"
                    offset="0"
                    style="stop-color:#e7b711;stop-opacity:1"/>
            <stop
                    style="stop-color:#e7b711;stop-opacity:1"
                    offset="0.3687557"
                    id="stop5113"/>
            <stop
                    id="stop5115"
                    offset="0.66876304"
                    style="stop-color:#04abfc;stop-opacity:1"/>
            <stop
                    id="stop5109"
                    offset="1"
                    style="stop-color:#04abfc;stop-opacity:1"/>
        </linearGradient>
        <linearGradient id="linearGradient4984">
            <stop
                    style="stop-color:#fca8d1;stop-opacity:1"
                    offset="0"
                    id="stop5014"/>
            <stop
                    id="stop5019"
                    offset="0.48305061"
                    style="stop-color:#f44336;stop-opacity:1"/>
            <stop
                    style="stop-color:#39b487;stop-opacity:1"
                    offset="1"
                    id="stop5016"/>
        </linearGradient>
        <linearGradient
                xlink:href="#linearGradient4984"
                id="linearGradient4988"
                x1="102.46104"
                y1="-57.157036"
                x2="102.47661"
                y2="-10.188286"
                gradientUnits="userSpaceOnUse"
                gradientTransform="translate(-29.704478,61.453951)"/>
        <linearGradient
                xlink:href="#linearGradient5111"
                id="linearGradient5103"
                x1="33.428623"
                y1="-83.226593"
                x2="69.47831"
                y2="-10.351589"
                gradientUnits="userSpaceOnUse"
                gradientTransform="matrix(0.75000001,0,0,0.75000001,-17.235728,62.578951)"/>
    </defs>
    <path
            style="fill:url(#linearGradient4988);fill-opacity:1;stroke:none;stroke-width:0.03796716"
            d="m 63.441894,4.469481 c 0.18984,0.303737 0.87325,1.290883 1.55666,2.240062 1.25291,1.784457 2.58177,4.214356 2.35396,4.328257 -0.0759,0 -1.21495,0.569506 -2.58177,1.214948 -1.36681,0.645443 -3.53094,1.974292 -4.78386,2.961439 -1.29088,0.949179 -2.5438,1.746489 -2.80957,1.746489 -0.49357,0 -0.37967,-1.860391 0.18984,-3.189241 0.2278,-0.53154 0.15187,-0.645441 -0.41764,-0.53154 -1.02511,0.189836 -2.24006,2.202095 -2.7716,4.707927 -0.30374,1.252916 -0.98715,2.961439 -1.59462,3.834683 -0.60748,0.873245 -1.10105,1.898358 -1.10105,2.315997 0,1.290884 1.17698,4.480125 2.08819,5.581173 1.32885,1.708522 1.93633,1.101047 2.4299,-2.429899 0.56951,-3.796716 1.67055,-7.099859 2.80957,-8.314808 1.02511,-1.139014 3.30314,-2.202095 5.5432,-2.543799 0.91122,-0.151869 2.73364,-0.721376 3.98656,-1.290884 2.126158,-0.949179 2.429898,-0.987146 3.796708,-0.53154 2.01226,0.683409 2.80957,0.341704 3.26518,-1.366818 0.37967,-1.404784 0.49357,-1.480719 2.84754,-2.088194 2.73363,-0.683409 4.21435,-0.759342 4.51809,-0.26577 0.87324,1.404785 -14.541418,11.428115 -17.616758,11.428115 -0.87325,0 -1.17699,0.189836 -1.36682,0.987147 -0.34171,1.32885 0.0759,3.530945 0.83527,4.366223 0.87325,0.987146 1.9743,0.911212 3.64485,-0.227803 1.63259,-1.101048 2.315998,-1.214949 2.050228,-0.303737 -0.113898,0.379671 -0.379668,2.391931 -0.607468,4.480125 -0.18984,2.088193 -0.49358,4.518092 -0.60748,5.391336 l -0.18983,1.594621 -2.54381,-1.214949 c -1.40478,-0.645442 -2.58176,-1.214949 -2.61973,-1.252916 -0.0759,0 0.15187,-0.683409 0.49357,-1.556654 0.60748,-1.518686 0.37967,-3.568913 -0.60747,-5.049632 -0.53154,-0.835278 -0.94918,-0.227803 -2.2021,3.227208 l -1.10104,3.037373 -2.01226,0.303737 c -2.316,0.303738 -3.79672,1.139015 -3.79672,2.01226 0,0.53154 0.34171,0.569507 2.01226,0.379672 3.07534,-0.379672 3.26518,-0.03797 1.63259,3.303142 -0.75935,1.556654 -1.89836,3.303143 -2.58177,3.872651 -1.06308,0.873244 -1.48072,1.025113 -3.03737,0.873244 -2.202096,-0.227802 -2.391926,0.303738 -0.64544,1.74649 1.67055,1.404785 4.36622,1.404785 6.07474,-0.03797 1.67056,-1.404785 3.18924,-3.910618 4.13842,-6.796123 l 0.79731,-2.353963 1.78446,0.721375 c 0.98715,0.417639 3.49298,2.050227 5.58117,3.606881 5.201498,3.910618 14.047848,8.314808 16.553678,8.200907 2.05023,-0.03797 9.453828,-1.860391 10.023328,-2.391931 0.60748,-0.607475 -1.48072,-2.164128 -3.72078,-2.771604 -1.10105,-0.303734 -4.783858,-1.139012 -8.238868,-1.860388 -5.69507,-1.214949 -9.52976,-2.353964 -10.97251,-3.265175 -0.3417,-0.227803 -0.60747,-1.21495 -0.72138,-2.657702 l -0.15186,-2.315998 h 1.55665 c 1.29088,0 1.86039,-0.265771 3.18924,-1.518687 0.91121,-0.79731 2.4299,-1.822423 3.37908,-2.240062 2.08819,-0.873245 2.35396,-1.214949 1.78446,-2.467866 -0.60748,-1.290883 -1.93633,-1.670555 -4.66997,-1.290883 -2.35396,0.341704 -3.26517,0.759343 -2.5438,1.214949 0.72138,0.455606 0.45561,0.949179 -0.72137,1.556654 -1.06308,0.53154 -1.17698,0.53154 -1.40479,0 -0.3417,-0.987147 0.18984,-5.391337 0.83528,-6.644253 0.34171,-0.607475 1.25292,-1.556654 2.0882,-2.088194 1.70852,-1.101048 1.93632,-2.126161 0.6834,-2.999406 -0.4556,-0.341704 -0.75934,-0.645442 -0.64544,-0.721376 0.91121,-0.683409 10.13723,-4.176387 12.18746,-4.631993 2.050228,-0.417639 1.594618,-3.379078 -0.72138,-5.049632 -1.10104,-0.75934 -3.83468,-1.670552 -4.29028,-1.404782 -0.11391,0.07593 -2.35397,0.341704 -4.93574,0.569507 l -4.66996,0.379672 -1.36681,-1.366818 c -1.70853,-1.746489 -4.707928,-3.113307 -7.517498,-3.417044 -1.78446,-0.227803 -2.0882,-0.189836 -1.82243,0.26577 z"
            id="path4998"/>
    <path
            style="fill:url(#linearGradient5103);fill-opacity:1;stroke:none;stroke-width:0.03796716"
            d="m 27.210562,0.39926262 c -0.479632,0.002447 -0.957038,0.115614 -1.583496,0.3149415 C 23.69074,1.3216779 21.755284,2.3469512 18.414175,4.5110792 16.971423,5.4602582 15.527601,6.257173 15.261831,6.257173 c -0.26577,0 -0.947952,-0.530709 -1.479492,-1.1381835 -0.493573,-0.645441 -1.17722,-1.139649 -1.480958,-1.1396483 -0.64544,0 -0.645797,0.1907063 -0.114257,1.2158198 0.645442,1.214949 0.07621,2.4679065 -1.78418,3.7587893 L 8.6568508,10.13022 8.8077291,12.560396 c 0.1898362,3.113307 0.835674,3.909984 2.4682619,3.074707 0.607475,-0.341706 2.354361,-1.935771 3.873047,-3.568359 3.606881,-3.834683 8.162547,-7.8978448 10.174805,-9.1127938 1.290885,-0.7593428 1.74653,-0.8338913 2.354004,-0.4921875 0.455606,0.2278027 0.796875,0.720426 0.796875,1.1000977 0,0.7973101 -2.315246,4.6695654 -4.441406,7.3652346 l -1.557129,2.012695 -2.277833,-0.152344 c -2.353963,-0.151869 -3.834603,0.342655 -5.125488,1.709473 -0.645441,0.721376 -0.607474,0.75875 1.404785,1.214356 2.240062,0.493573 4.023926,1.633221 4.023926,2.544433 0,0.759343 -3.07546,3.682222 -5.657226,5.428711 -3.530946,2.353965 -10.136086,5.694678 -11.8066413,5.96045 -1.8603907,0.303738 -2.27818799,0.950328 -2.39208974,3.645996 -0.07593,1.974292 -0.0757725,2.012456 0.98730454,1.936523 0.645441,-0.03797 2.5805003,-1.140125 4.744629,-2.696777 2.0122591,-1.48072 5.3544405,-3.53067 7.3666995,-4.59375 l 3.682617,-1.97461 1.519043,1.101563 c 0.835278,0.607474 2.011785,1.329325 2.657226,1.557129 0.607475,0.26577 1.214713,0.834922 1.328614,1.290527 0.379672,1.404786 0.227328,13.250818 -0.152343,15.073243 -0.94918,4.13842 -1.36678,4.403279 -7.479493,4.858886 l -3.720703,0.304688 1.330078,0.682617 c 1.746488,0.949179 9.149613,4.025391 9.681152,4.025391 0.645441,0 2.277635,-1.899387 3.150879,-3.607911 1.518687,-3.037371 1.975006,-7.706467 1.633301,-17.046387 -0.189835,-5.201501 -0.532372,-4.708642 3.947754,-5.847655 3.910617,-0.987147 9.79648,-3.075025 10.138184,-3.644533 1.101048,-1.632587 -0.532134,-4.746369 -3,-5.771484 -1.86039,-0.79731 -8.010717,-0.569664 -11.124023,0.417481 -0.53154,0.151869 -0.683211,-0.07558 -0.873048,-1.290527 -0.113901,-0.835278 -0.531697,-2.011786 -0.987304,-2.657227 l -0.79834,-1.101562 3.684082,-2.885743 c 2.050227,-1.5946195 4.441328,-3.378484 5.352539,-4.0239257 0.873245,-0.6454418 1.595215,-1.3294448 1.595215,-1.5952148 0,-0.7213763 -3.190153,-3.5299576 -4.97461,-4.3652348 C 28.816387,0.70075812 28.009948,0.39518412 27.210562,0.39926262 Z M 33.487417,19.963716 c 0.151868,0 0.682816,0.113507 1.214356,0.341309 0.53154,0.189837 0.987304,0.53233 0.987304,0.722167 0,0.607476 -3.417916,3.683371 -5.430175,4.860352 -2.5438,1.518687 -3.682617,1.859559 -3.682617,1.138184 0,-0.759345 -0.797272,-1.366857 -3.265137,-2.354004 -1.176982,-0.455605 -1.974016,-0.949576 -1.78418,-1.063477 0.987146,-0.607474 8.124855,-2.999366 9.79541,-3.265136 1.025113,-0.189835 2.01317,-0.341428 2.165039,-0.379395 z"
            id="path5092"/>
</svg>
